<svg xmlns="http://www.w3.org/2000/svg" viewBox="0 0 64 64" width="64" height="64" role="img" aria-label="世界树">
  <title>世界树</title>
  <defs>
    <radialGradient id="fvPlate" cx="50%" cy="22%" r="88%">
      <stop offset="0" stop-color="#1f7856" />
      <stop offset="42%" stop-color="#0c3526" />
      <stop offset="100%" stop-color="#03110b" />
    </radialGradient>
    <radialGradient id="fvHalo" cx="50%" cy="50%" r="50%">
      <stop offset="0" stop-color="#9dffd6" stop-opacity=".46" />
      <stop offset="46%" stop-color="#3fd196" stop-opacity=".18" />
      <stop offset="100%" stop-color="#0e5c3d" stop-opacity="0" />
    </radialGradient>
    <radialGradient id="fvCore" cx="50%" cy="50%" r="50%">
      <stop offset="0" stop-color="#f6fffb" stop-opacity=".95" />
      <stop offset="30%" stop-color="#9dffd6" stop-opacity=".45" />
      <stop offset="100%" stop-color="#33c98d" stop-opacity="0" />
    </radialGradient>
    <linearGradient id="fvWood" gradientUnits="userSpaceOnUse" x1="256" y1="104" x2="256" y2="372">
      <stop offset="0" stop-color="#dcffef" />
      <stop offset="34%" stop-color="#88e8bb" />
      <stop offset="72%" stop-color="#34a672" />
      <stop offset="100%" stop-color="#12603f" />
    </linearGradient>
    <linearGradient id="fvRoot" gradientUnits="userSpaceOnUse" x1="256" y1="356" x2="256" y2="448">
      <stop offset="0" stop-color="#3aa876" />
      <stop offset="100%" stop-color="#10543a" stop-opacity=".25" />
    </linearGradient>
    <clipPath id="fvClip"><rect x="0" y="0" width="64" height="64" rx="15" ry="15" /></clipPath>
  </defs>

  <rect width="64" height="64" rx="15" ry="15" fill="url(#fvPlate)" />

  <g clip-path="url(#fvClip)">
    <ellipse cx="32" cy="24" rx="24" ry="22" fill="url(#fvHalo)" />
    <ellipse cx="32" cy="44.12" rx="19" ry="4.2" fill="url(#fvCore)" opacity=".55" />
    <path d="M8 45.1Q32 42.7 56 45.1" fill="none"
      stroke="#c8ffe8" stroke-opacity=".42" stroke-width="1.1" stroke-linecap="round" />

    <g transform="translate(-6.528 -9.759) scale(0.1505)" fill="none" stroke-linecap="round" stroke-linejoin="round">
      <g stroke="url(#fvRoot)">
        <path stroke-width="19" d="M256 358Q280.2 407 328.2 432.8M256 358Q231.8 407 183.8 432.8" />
        <path stroke-width="15" d="M256 358Q257.7 402.1 284.7 436.9M256 358Q254.3 402.1 227.3 436.9" />
        <path stroke-width="13" d="M256 358L256 420" />
      </g>
      <g stroke="url(#fvWood)">
        <path stroke-width="44" d="M256 358L256 296" />
        <path stroke-width="34" d="M256 296L256 234" />
        <path stroke-width="26" d="M256 332Q316.2 300.7 384.1 300.1M256 332Q195.8 300.7 127.9 300.1" />
        <path stroke-width="25" d="M256 234L256 182" />
        <path stroke-width="22" d="M256 282Q303.4 226.5 370.9 198.5M256 282Q208.6 226.5 141.1 198.5" />
        <path stroke-width="18" d="M256 228Q276.6 166.6 322.8 121.1M256 228Q235.4 166.6 189.2 121.1M256 184L256 118" />
      </g>
      <g fill="#7fe9bb" opacity=".42">
        <circle cx="328.2" cy="432.8" r="8" /><circle cx="183.8" cy="432.8" r="8" /><circle cx="284.7" cy="436.9" r="8" /><circle cx="227.3" cy="436.9" r="8" /><circle cx="256" cy="420" r="8" />
      </g>
      <g fill="#a5ffd8" opacity=".3">
        <circle cx="384.1" cy="300.1" r="25" /><circle cx="127.9" cy="300.1" r="25" /><circle cx="370.9" cy="198.5" r="25" /><circle cx="141.1" cy="198.5" r="25" /><circle cx="322.8" cy="121.1" r="25" /><circle cx="189.2" cy="121.1" r="25" /><circle cx="256" cy="118" r="25" />
      </g>
      <g fill="#f2fffa">
        <circle cx="384.1" cy="300.1" r="16" /><circle cx="127.9" cy="300.1" r="16" /><circle cx="370.9" cy="198.5" r="16" /><circle cx="141.1" cy="198.5" r="16" /><circle cx="322.8" cy="121.1" r="16" /><circle cx="189.2" cy="121.1" r="16" /><circle cx="256" cy="118" r="16" />
      </g>
    </g>

    <circle cx="32" cy="44.12" r="6.4" fill="url(#fvCore)" />
    <circle cx="32" cy="44.12" r="2.5" fill="#f6fffb" />
  </g>

  <rect x=".6" y=".6" width="62.8" height="62.8" rx="14.4" ry="14.4" fill="none"
    stroke="#b6ffe0" stroke-opacity=".22" stroke-width="1.2" />
</svg>
